<svg width="669" height="498" viewBox="0 0 669 498" fill="none" xmlns="http://www.w3.org/2000/svg">
<path d="M383.399 372.976L255.599 248.651" stroke="black"/>
<path d="M383.399 372.976C363.401 392.43 338.989 407.047 312.126 415.652C285.264 424.257 256.7 426.609 228.733 422.52C200.766 418.43 174.176 408.013 151.101 392.105C128.026 376.198 109.11 355.245 95.8751 330.931L255.599 248.651L383.399 372.976Z" fill="black"/>
<path d="M561.306 108C561.365 108 561.416 107.978 561.458 107.935C561.498 107.896 561.517 107.848 561.517 107.789C561.517 107.73 561.498 107.68 561.458 107.637C561.416 107.594 561.365 107.572 561.306 107.572H558.013V103.553H560.263C560.322 103.553 560.371 103.531 560.41 103.488C560.453 103.445 560.474 103.394 560.474 103.336C560.474 103.277 560.453 103.228 560.41 103.189C560.371 103.146 560.322 103.125 560.263 103.125H558.013V100.031H561.306C561.365 100.031 561.416 100.012 561.458 99.9726C561.498 99.9296 561.517 99.8788 561.517 99.8203C561.517 99.7617 561.498 99.7109 561.458 99.6679C561.416 99.6288 561.365 99.6093 561.306 99.6093H557.796C557.738 99.6093 557.689 99.6288 557.65 99.6679C557.607 99.7109 557.585 99.7617 557.585 99.8203V107.789C557.585 107.848 557.607 107.896 557.65 107.935C557.689 107.978 557.738 108 557.796 108H561.306ZM564.236 105.053L565.267 102.768C565.294 102.713 565.296 102.658 565.273 102.603C565.253 102.549 565.216 102.51 565.162 102.486C565.111 102.463 565.056 102.461 564.998 102.48C564.943 102.5 564.904 102.537 564.88 102.592L563.99 104.56L563.011 102.586C562.984 102.531 562.943 102.496 562.888 102.48C562.83 102.461 562.775 102.463 562.724 102.486C562.669 102.514 562.632 102.555 562.613 102.609C562.597 102.668 562.601 102.723 562.625 102.773L563.767 105.059L562.572 107.701C562.548 107.752 562.546 107.805 562.566 107.859C562.589 107.918 562.628 107.959 562.683 107.982C562.71 107.994 562.738 108 562.765 108C562.859 108 562.925 107.959 562.964 107.877L564.013 105.551L565.173 107.883C565.212 107.961 565.275 108 565.361 108C565.396 108 565.427 107.992 565.455 107.977C565.509 107.949 565.546 107.908 565.566 107.853C565.585 107.799 565.582 107.744 565.554 107.689L564.236 105.053ZM567.06 107.244C566.955 107.244 566.865 107.281 566.791 107.355C566.716 107.43 566.679 107.518 566.679 107.619C566.679 107.725 566.716 107.814 566.791 107.889C566.865 107.963 566.955 108 567.06 108C567.162 108 567.25 107.963 567.324 107.889C567.398 107.814 567.435 107.725 567.435 107.619C567.435 107.518 567.398 107.43 567.324 107.355C567.25 107.281 567.162 107.244 567.06 107.244ZM573.728 107.789C573.728 107.848 573.75 107.896 573.792 107.935C573.835 107.978 573.886 108 573.945 108C574.003 108 574.054 107.978 574.097 107.935C574.136 107.896 574.156 107.848 574.156 107.789V99.8203C574.156 99.7109 574.103 99.6425 573.998 99.6152C573.896 99.5839 573.818 99.6152 573.763 99.7089L571.654 103.23C571.626 103.281 571.619 103.334 571.63 103.389C571.646 103.447 571.679 103.492 571.73 103.523C571.781 103.551 571.833 103.559 571.888 103.547C571.947 103.531 571.992 103.498 572.023 103.447L573.728 100.594V107.789Z" fill="black"/>
<rect x="502.891" y="98.3178" width="37.5326" height="13.28" fill="#E5C693" stroke="black"/>
<path d="M561.306 153C561.365 153 561.416 152.979 561.458 152.936C561.498 152.897 561.517 152.848 561.517 152.789C561.517 152.731 561.498 152.68 561.458 152.637C561.416 152.594 561.365 152.572 561.306 152.572H558.013V148.553H560.263C560.322 148.553 560.371 148.531 560.41 148.488C560.453 148.445 560.474 148.395 560.474 148.336C560.474 148.277 560.453 148.229 560.41 148.19C560.371 148.147 560.322 148.125 560.263 148.125H558.013V145.031H561.306C561.365 145.031 561.416 145.012 561.458 144.973C561.498 144.93 561.517 144.879 561.517 144.82C561.517 144.762 561.498 144.711 561.458 144.668C561.416 144.629 561.365 144.609 561.306 144.609H557.796C557.738 144.609 557.689 144.629 557.65 144.668C557.607 144.711 557.585 144.762 557.585 144.82V152.789C557.585 152.848 557.607 152.897 557.65 152.936C557.689 152.979 557.738 153 557.796 153H561.306ZM564.236 150.053L565.267 147.768C565.294 147.713 565.296 147.658 565.273 147.604C565.253 147.549 565.216 147.51 565.162 147.486C565.111 147.463 565.056 147.461 564.998 147.481C564.943 147.5 564.904 147.537 564.88 147.592L563.99 149.561L563.011 147.586C562.984 147.531 562.943 147.496 562.888 147.481C562.83 147.461 562.775 147.463 562.724 147.486C562.669 147.514 562.632 147.555 562.613 147.609C562.597 147.668 562.601 147.723 562.625 147.773L563.767 150.059L562.572 152.701C562.548 152.752 562.546 152.805 562.566 152.859C562.589 152.918 562.628 152.959 562.683 152.982C562.71 152.994 562.738 153 562.765 153C562.859 153 562.925 152.959 562.964 152.877L564.013 150.551L565.173 152.883C565.212 152.961 565.275 153 565.361 153C565.396 153 565.427 152.992 565.455 152.977C565.509 152.949 565.546 152.908 565.566 152.854C565.585 152.799 565.582 152.744 565.554 152.69L564.236 150.053ZM567.06 152.244C566.955 152.244 566.865 152.281 566.791 152.356C566.716 152.43 566.679 152.518 566.679 152.619C566.679 152.725 566.716 152.815 566.791 152.889C566.865 152.963 566.955 153 567.06 153C567.162 153 567.25 152.963 567.324 152.889C567.398 152.815 567.435 152.725 567.435 152.619C567.435 152.518 567.398 152.43 567.324 152.356C567.25 152.281 567.162 152.244 567.06 152.244ZM572.421 152.572C572.699 152.307 572.966 152.022 573.224 151.717C573.572 151.307 573.884 150.889 574.162 150.463C574.9 149.307 575.312 148.172 575.398 147.059V147.047C575.398 146.375 575.214 145.801 574.847 145.324C574.476 144.848 574.031 144.609 573.511 144.609C572.992 144.609 572.546 144.848 572.175 145.324C571.808 145.801 571.625 146.375 571.625 147.047C571.625 147.106 571.646 147.154 571.689 147.193C571.728 147.236 571.777 147.258 571.835 147.258C571.894 147.258 571.945 147.236 571.988 147.193C572.031 147.154 572.052 147.106 572.052 147.047C572.052 146.492 572.195 146.018 572.48 145.623C572.765 145.229 573.109 145.031 573.511 145.031C573.914 145.031 574.257 145.229 574.542 145.623C574.828 146.014 574.97 146.484 574.97 147.035C574.869 148.309 574.304 149.619 573.277 150.967C572.953 151.389 572.601 151.789 572.222 152.168C572.101 152.289 571.986 152.4 571.876 152.502C571.837 152.533 571.804 152.563 571.777 152.59C571.765 152.598 571.755 152.606 571.748 152.613L571.742 152.619L571.736 152.625C571.658 152.688 571.636 152.766 571.671 152.859C571.707 152.953 571.773 153 571.871 153H575.24C575.298 153 575.347 152.979 575.386 152.936C575.429 152.897 575.451 152.848 575.451 152.789C575.451 152.731 575.429 152.68 575.386 152.637C575.347 152.594 575.298 152.572 575.24 152.572H572.421Z" fill="black"/>
<rect x="502.391" y="142.443" width="38.5326" height="14.28" fill="#C5C5C5"/>
<path d="M561.306 196C561.365 196 561.416 195.979 561.458 195.936C561.498 195.897 561.517 195.848 561.517 195.789C561.517 195.731 561.498 195.68 561.458 195.637C561.416 195.594 561.365 195.572 561.306 195.572H558.013V191.553H560.263C560.322 191.553 560.371 191.531 560.41 191.488C560.453 191.445 560.474 191.395 560.474 191.336C560.474 191.277 560.453 191.229 560.41 191.19C560.371 191.147 560.322 191.125 560.263 191.125H558.013V188.031H561.306C561.365 188.031 561.416 188.012 561.458 187.973C561.498 187.93 561.517 187.879 561.517 187.82C561.517 187.762 561.498 187.711 561.458 187.668C561.416 187.629 561.365 187.609 561.306 187.609H557.796C557.738 187.609 557.689 187.629 557.65 187.668C557.607 187.711 557.585 187.762 557.585 187.82V195.789C557.585 195.848 557.607 195.897 557.65 195.936C557.689 195.979 557.738 196 557.796 196H561.306ZM564.236 193.053L565.267 190.768C565.294 190.713 565.296 190.658 565.273 190.604C565.253 190.549 565.216 190.51 565.162 190.486C565.111 190.463 565.056 190.461 564.998 190.481C564.943 190.5 564.904 190.537 564.88 190.592L563.99 192.561L563.011 190.586C562.984 190.531 562.943 190.496 562.888 190.481C562.83 190.461 562.775 190.463 562.724 190.486C562.669 190.514 562.632 190.555 562.613 190.609C562.597 190.668 562.601 190.723 562.625 190.773L563.767 193.059L562.572 195.701C562.548 195.752 562.546 195.805 562.566 195.859C562.589 195.918 562.628 195.959 562.683 195.982C562.71 195.994 562.738 196 562.765 196C562.859 196 562.925 195.959 562.964 195.877L564.013 193.551L565.173 195.883C565.212 195.961 565.275 196 565.361 196C565.396 196 565.427 195.992 565.455 195.977C565.509 195.949 565.546 195.908 565.566 195.854C565.585 195.799 565.582 195.744 565.554 195.69L564.236 193.053ZM567.06 195.244C566.955 195.244 566.865 195.281 566.791 195.356C566.716 195.43 566.679 195.518 566.679 195.619C566.679 195.725 566.716 195.815 566.791 195.889C566.865 195.963 566.955 196 567.06 196C567.162 196 567.25 195.963 567.324 195.889C567.398 195.815 567.435 195.725 567.435 195.619C567.435 195.518 567.398 195.43 567.324 195.356C567.25 195.281 567.162 195.244 567.06 195.244ZM573.734 191.26C573.957 191.1 574.132 190.867 574.261 190.563C574.398 190.254 574.466 189.912 574.466 189.537C574.466 188.994 574.335 188.537 574.074 188.166C573.812 187.795 573.492 187.609 573.113 187.609C572.859 187.609 572.625 187.701 572.41 187.885C572.195 188.068 572.031 188.318 571.917 188.635C571.812 188.916 571.759 189.217 571.759 189.537C571.759 189.596 571.781 189.647 571.824 189.69C571.867 189.729 571.917 189.748 571.976 189.748C572.035 189.748 572.085 189.729 572.128 189.69C572.167 189.647 572.187 189.596 572.187 189.537C572.187 189.268 572.23 189.016 572.316 188.781C572.402 188.551 572.515 188.369 572.656 188.236C572.8 188.1 572.953 188.031 573.113 188.031C573.363 188.031 573.58 188.18 573.763 188.477C573.947 188.777 574.039 189.131 574.039 189.537C574.039 189.943 573.947 190.295 573.763 190.592C573.58 190.889 573.363 191.037 573.113 191.037C573.054 191.037 573.003 191.059 572.96 191.102C572.921 191.141 572.902 191.191 572.902 191.254V191.336C572.902 191.395 572.921 191.445 572.96 191.488C573.003 191.531 573.054 191.553 573.113 191.553C573.515 191.553 573.859 191.748 574.144 192.139C574.429 192.533 574.572 193.008 574.572 193.563C574.572 194.117 574.429 194.592 574.144 194.986C573.859 195.377 573.515 195.572 573.113 195.572C572.675 195.572 572.31 195.344 572.017 194.887C571.986 194.836 571.941 194.805 571.882 194.793C571.828 194.781 571.775 194.791 571.724 194.822C571.673 194.854 571.642 194.898 571.63 194.957C571.619 195.016 571.628 195.068 571.66 195.115C572.035 195.705 572.519 196 573.113 196C573.632 196 574.078 195.762 574.449 195.285C574.816 194.809 575 194.234 575 193.563C575 193.035 574.88 192.559 574.642 192.133C574.408 191.719 574.105 191.428 573.734 191.26Z" fill="black"/>
<rect x="502.391" y="185.283" width="38.5326" height="14.28" fill="black"/>
<path d="M561.306 237C561.365 237 561.416 236.979 561.458 236.936C561.498 236.897 561.517 236.848 561.517 236.789C561.517 236.731 561.498 236.68 561.458 236.637C561.416 236.594 561.365 236.572 561.306 236.572H558.013V232.553H560.263C560.322 232.553 560.371 232.531 560.41 232.488C560.453 232.445 560.474 232.395 560.474 232.336C560.474 232.277 560.453 232.229 560.41 232.19C560.371 232.147 560.322 232.125 560.263 232.125H558.013V229.031H561.306C561.365 229.031 561.416 229.012 561.458 228.973C561.498 228.93 561.517 228.879 561.517 228.82C561.517 228.762 561.498 228.711 561.458 228.668C561.416 228.629 561.365 228.609 561.306 228.609H557.796C557.738 228.609 557.689 228.629 557.65 228.668C557.607 228.711 557.585 228.762 557.585 228.82V236.789C557.585 236.848 557.607 236.897 557.65 236.936C557.689 236.979 557.738 237 557.796 237H561.306ZM564.236 234.053L565.267 231.768C565.294 231.713 565.296 231.658 565.273 231.604C565.253 231.549 565.216 231.51 565.162 231.486C565.111 231.463 565.056 231.461 564.998 231.481C564.943 231.5 564.904 231.537 564.88 231.592L563.99 233.561L563.011 231.586C562.984 231.531 562.943 231.496 562.888 231.481C562.83 231.461 562.775 231.463 562.724 231.486C562.669 231.514 562.632 231.555 562.613 231.609C562.597 231.668 562.601 231.723 562.625 231.773L563.767 234.059L562.572 236.701C562.548 236.752 562.546 236.805 562.566 236.859C562.589 236.918 562.628 236.959 562.683 236.982C562.71 236.994 562.738 237 562.765 237C562.859 237 562.925 236.959 562.964 236.877L564.013 234.551L565.173 236.883C565.212 236.961 565.275 237 565.361 237C565.396 237 565.427 236.992 565.455 236.977C565.509 236.949 565.546 236.908 565.566 236.854C565.585 236.799 565.582 236.744 565.554 236.69L564.236 234.053ZM567.06 236.244C566.955 236.244 566.865 236.281 566.791 236.356C566.716 236.43 566.679 236.518 566.679 236.619C566.679 236.725 566.716 236.815 566.791 236.889C566.865 236.963 566.955 237 567.06 237C567.162 237 567.25 236.963 567.324 236.889C567.398 236.815 567.435 236.725 567.435 236.619C567.435 236.518 567.398 236.43 567.324 236.356C567.25 236.281 567.162 236.244 567.06 236.244ZM574.419 236.789C574.419 236.848 574.441 236.897 574.484 236.936C574.527 236.979 574.578 237 574.636 237C574.695 237 574.744 236.979 574.783 236.936C574.826 236.897 574.847 236.848 574.847 236.789V229.793C574.847 229.734 574.826 229.684 574.783 229.641C574.744 229.602 574.695 229.582 574.636 229.582C574.578 229.582 574.527 229.602 574.484 229.641C574.441 229.684 574.419 229.734 574.419 229.793V232.125H572.117L572.96 228.873C572.976 228.818 572.968 228.766 572.937 228.715C572.91 228.664 572.867 228.631 572.808 228.615C572.75 228.6 572.695 228.607 572.644 228.639C572.593 228.666 572.562 228.709 572.55 228.768L571.63 232.283C571.615 232.35 571.628 232.412 571.671 232.471C571.714 232.525 571.771 232.553 571.841 232.553H574.419V236.789Z" fill="black"/>
<rect x="502.391" y="226.338" width="38.5326" height="14.28" fill="#01A75B"/>
<path d="M99.0767 336.562C84.936 312.735 76.7404 286.013 75.1491 258.544C73.5577 231.075 78.6149 203.626 89.9141 178.405C101.213 153.183 118.439 130.894 140.206 113.328C161.973 95.7622 187.673 83.411 215.241 77.2675L255.599 248.65L99.0767 336.562Z" fill="#01A75B"/>
<path d="M208.821 78.8191C235.855 71.7723 264.202 70.9295 291.627 76.3569C319.053 81.7843 344.809 93.3338 366.864 110.095C388.919 126.856 406.672 148.372 418.723 172.945C430.774 197.518 436.793 224.479 436.308 251.701L255.599 248.651L208.821 78.8191Z" fill="#C5C5C5"/>
</svg>
