<svg width="624" height="256" viewBox="0 0 624 256" fill="none" xmlns="http://www.w3.org/2000/svg">
<path d="M12.768 241.128H4.368L2.94 246H0.42L6.356 226.4H10.78L16.716 246H14.196L12.768 241.128ZM8.4 227.408L5.012 238.944H12.124L8.736 227.408H8.4ZM29.5485 244.992H29.8845V226.4H32.2365V246H27.5325L21.8765 227.408H21.5405V246H19.1885V226.4H23.8925L29.5485 244.992ZM46.6931 244.992H47.0291V226.4H49.3811V246H44.6771L39.0211 227.408H38.6851V246H36.3331V226.4H41.0371L46.6931 244.992ZM55.6336 226.4V239.392C55.6336 240.979 55.9976 242.183 56.7256 243.004C57.4723 243.807 58.5643 244.208 60.0016 244.208C61.4389 244.208 62.5216 243.807 63.2496 243.004C63.9963 242.183 64.3696 240.979 64.3696 239.392V226.4H66.7216V239.392C66.7216 241.669 66.1243 243.405 64.9296 244.6C63.7349 245.795 62.0923 246.392 60.0016 246.392C57.9109 246.392 56.2683 245.795 55.0736 244.6C53.8789 243.405 53.2816 241.669 53.2816 239.392V226.4H55.6336ZM81.3461 241.128H72.9461L71.5181 246H68.9981L74.9341 226.4H79.3581L85.2941 246H82.7741L81.3461 241.128ZM76.9781 227.408L73.5901 238.944H80.7021L77.3141 227.408H76.9781ZM88.1587 226.4H90.5107V243.816H100.759V246H88.1587V226.4ZM134.712 246H132.36V239.448C132.36 238.963 132.248 238.589 132.024 238.328C131.8 238.067 131.408 237.936 130.848 237.936H124.744V246H122.392V226.4H129.392C130.4 226.4 131.277 226.549 132.024 226.848C132.77 227.128 133.386 227.511 133.872 227.996C134.376 228.481 134.749 229.051 134.992 229.704C135.253 230.339 135.384 231.011 135.384 231.72V232.56C135.384 233.288 135.178 234.016 134.768 234.744C134.376 235.472 133.76 236.032 132.92 236.424V236.76C133.48 236.853 133.918 237.077 134.236 237.432C134.553 237.787 134.712 238.291 134.712 238.944V246ZM124.744 235.752H129.112C130.437 235.752 131.417 235.472 132.052 234.912C132.705 234.333 133.032 233.493 133.032 232.392V231.888C133.032 230.899 132.705 230.105 132.052 229.508C131.417 228.892 130.437 228.584 129.112 228.584H124.744V235.752ZM139.788 226.4H151.66V228.584H142.14V235.08H151.492V237.264H142.14V243.816H151.828V246H139.788V226.4ZM159.033 237.936V246H156.681V226.4H163.681C164.689 226.4 165.566 226.549 166.313 226.848C167.059 227.128 167.675 227.511 168.161 227.996C168.665 228.481 169.038 229.051 169.281 229.704C169.542 230.339 169.673 231.011 169.673 231.72V232.56C169.673 233.269 169.542 233.951 169.281 234.604C169.038 235.257 168.665 235.836 168.161 236.34C167.657 236.825 167.031 237.217 166.285 237.516C165.538 237.796 164.67 237.936 163.681 237.936H159.033ZM159.033 235.752H163.401C166.014 235.752 167.321 234.632 167.321 232.392V231.888C167.321 230.899 166.994 230.105 166.341 229.508C165.706 228.892 164.726 228.584 163.401 228.584H159.033V235.752ZM173.125 234.016C173.125 231.477 173.732 229.508 174.945 228.108C176.159 226.708 177.848 226.008 180.013 226.008C182.179 226.008 183.868 226.708 185.081 228.108C186.295 229.508 186.901 231.477 186.901 234.016V238.384C186.901 240.997 186.295 242.985 185.081 244.348C183.868 245.711 182.179 246.392 180.013 246.392C177.848 246.392 176.159 245.711 174.945 244.348C173.732 242.985 173.125 240.997 173.125 238.384V234.016ZM180.013 244.208C181.525 244.208 182.655 243.695 183.401 242.668C184.167 241.623 184.549 240.139 184.549 238.216V234.184C184.549 232.392 184.167 230.945 183.401 229.844C182.655 228.743 181.525 228.192 180.013 228.192C178.501 228.192 177.363 228.743 176.597 229.844C175.851 230.945 175.477 232.392 175.477 234.184V238.216C175.477 240.139 175.851 241.623 176.597 242.668C177.363 243.695 178.501 244.208 180.013 244.208ZM203.29 246H200.938V239.448C200.938 238.963 200.826 238.589 200.602 238.328C200.378 238.067 199.986 237.936 199.426 237.936H193.322V246H190.97V226.4H197.97C198.978 226.4 199.855 226.549 200.602 226.848C201.349 227.128 201.965 227.511 202.45 227.996C202.954 228.481 203.327 229.051 203.57 229.704C203.831 230.339 203.962 231.011 203.962 231.72V232.56C203.962 233.288 203.757 234.016 203.346 234.744C202.954 235.472 202.338 236.032 201.498 236.424V236.76C202.058 236.853 202.497 237.077 202.814 237.432C203.131 237.787 203.29 238.291 203.29 238.944V246ZM193.322 235.752H197.69C199.015 235.752 199.995 235.472 200.63 234.912C201.283 234.333 201.61 233.493 201.61 232.392V231.888C201.61 230.899 201.283 230.105 200.63 229.508C199.995 228.892 199.015 228.584 197.69 228.584H193.322V235.752ZM207.414 226.4H221.19V228.584H215.478V246H213.126V228.584H207.414V226.4Z" fill="white"/>
<g clip-path="url(#clip0_7_3)">
<path d="M51.6191 58.7105C51.6191 65.6165 46.5847 68.1994 36.846 68.1994H19.3586V49.8444H37.332C46.7864 49.8444 51.6191 52.9127 51.6191 58.8845M49.6108 26.7907C49.6108 32.4328 45.0716 35.2171 36.0207 35.2171H19.3586V18.3551H35.3238C45.5118 18.3551 49.6108 20.5624 49.6108 26.7815M120.468 130.876C120.468 138.276 115.883 141.546 105.934 141.546H89.8035V120.691H105.888C115.141 120.691 120.423 124.208 120.423 130.867M137.782 130.171C138.121 122.861 134.829 115.855 128.978 111.449C122.202 106.595 113.967 104.204 105.649 104.662H72.3711V186.719H89.8126V157.447H98.9828C107.988 157.447 113.141 160.515 115.15 164.6C116.47 167.439 117.451 170.434 118.057 173.512L121.248 186.719H139.753L135.214 169.628C133.976 162.2 129.464 155.715 122.935 151.969C131.775 148.306 137.589 139.742 137.708 130.18M229.061 25.023C229.061 20.2419 233.765 16.8438 241.138 16.8438C249.116 16.9629 256.681 20.4067 262.018 26.3327L273.729 14.0686C265.558 5.35817 254.031 0.577073 242.083 0.94344C234.371 0.741938 226.823 3.13249 220.634 7.7304C214.746 11.9162 211.39 18.7947 211.711 26.003C211.711 39.5769 221.578 47.9209 237.626 50.5313L247.741 52.2899C255.352 53.6821 259.203 56.6222 259.203 60.9178C259.203 66.0653 253.802 69.8297 244.916 69.8297C235.719 69.903 227.053 65.4974 221.707 58.0144L209.758 70.2785C218.158 80.3995 230.693 86.1789 243.852 85.9774C252.335 86.2888 260.68 83.7609 267.557 78.7783C273.371 74.5742 276.746 67.7872 276.608 60.6247C276.608 46.4555 267.383 37.9099 248.933 34.9882L240.744 33.6784C232.885 32.2862 228.997 29.3461 228.997 25.0138M404.32 145.173C404.32 162.136 394.132 170.682 373.619 170.682H366.659V120.682H373.573C394.041 120.682 404.394 128.861 404.394 145.21M422.074 145.21C422.074 131.022 416.342 119.784 407.337 113.684C398.14 107.593 387.301 104.451 376.269 104.69H349.171V186.701H376.269C387.392 186.838 398.286 183.541 407.457 177.258C417.25 169.583 422.707 157.63 422.074 145.201M458.543 127.295C463.156 122.248 469.758 119.491 476.599 119.775C483.275 119.601 489.685 122.404 494.078 127.423C498.58 132.405 501.01 138.908 500.873 145.613C501.074 152.418 498.672 159.04 494.16 164.133C489.703 169.18 483.202 171.927 476.48 171.616C469.639 171.955 463.018 169.207 458.424 164.133C449.566 153.462 449.566 138.011 458.424 127.34M476.022 103.426C453.17 102.968 434.27 121.103 433.821 143.928C433.812 144.523 433.812 145.109 433.821 145.705C434.013 169.299 453.316 188.267 476.948 188.075C487.879 187.983 498.36 183.724 506.237 176.159C514.408 168.163 518.864 157.117 518.516 145.695C518.874 134.347 514.408 123.374 506.237 115.479C498.323 107.547 487.521 103.169 476.315 103.334M535.132 43.2772C535.334 50.0642 532.95 56.668 528.456 61.7605C524 66.8255 517.48 69.5916 510.731 69.2802C503.89 69.6008 497.26 66.8438 492.675 61.7605C488.2 56.6588 485.815 50.0642 485.999 43.2772C485.825 36.5269 488.209 29.9598 492.675 24.8764C497.296 19.848 503.899 17.1094 510.731 17.3934C517.397 17.2193 523.798 20.0037 528.209 24.9955C532.785 29.9689 535.27 36.5178 535.123 43.2681M540.524 73.6858C548.686 65.6989 553.142 54.6713 552.803 43.2681C553.142 31.9198 548.686 20.9563 540.524 13.0519C532.51 5.0834 521.579 0.72362 510.272 0.989236C487.374 0.60455 468.493 18.8222 468.108 41.6927C468.108 42.2148 468.108 42.7368 468.108 43.2589C467.493 66.0562 485.504 85.034 508.328 85.6477C508.924 85.666 509.511 85.666 510.107 85.6568C521.395 85.9133 532.308 81.5901 540.359 73.6766M567.906 104.662H532.748V186.719H550.19V120.938H553.583L567.668 186.719H587.604L602.01 120.938H605.531V186.719H623.092V104.662H587.723L577.608 155.688L567.906 104.662ZM212.564 104.662H151.986V186.719H212.564V170.691H169.299V152.739H210.235V136.957H169.299V120.599H212.564V104.653V104.662ZM58.5333 104.662H1.91699V186.719H19.3586V154.424H55.8282V138.524H19.3586V120.7H58.5242V104.671L58.5333 104.662ZM58.7809 41.6652C64.1088 37.8 67.245 31.6084 67.2175 25.023C67.2175 10.3866 56.0849 2.33564 38.8543 2.33564H1.99952V84.3837H40.89C48.2811 84.7317 55.5439 82.4053 61.3577 77.844C66.5114 73.5392 69.3999 67.1003 69.1799 60.3866C69.1615 52.7753 65.2367 45.7044 58.7809 41.6652ZM83.632 84.3929H124.283V68.4925H112.573V18.2268H124.283V2.32648H83.3477V18.2268H95.058V68.4742H83.6412V84.3745L83.632 84.3929ZM177.727 18.3551H201.303V2.32648H136.828V18.3551H160.368V84.3837H177.727V18.3551ZM229.327 186.71H330.143V170.682H246.842V152.73H328.135V136.948H246.842V120.59H330.143V104.644H229.409L229.327 186.701V186.71ZM623.083 18.3184V2.32648H566.347V84.3837H583.826V52.0792H620.259V36.1331H583.826V18.3551H623.083V18.3184Z" stroke="white" stroke-width="2" stroke-miterlimit="10"/>
</g>
<defs>
<clipPath id="clip0_7_3">
<rect width="623" height="189" fill="white" transform="translate(1)"/>
</clipPath>
</defs>
</svg>
