<svg width="147" height="67" viewBox="0 0 147 67" fill="none" xmlns="http://www.w3.org/2000/svg">
<g clip-path="url(#clip0_33_2)">
<mask id="path-1-inside-1_33_2" fill="white">
<path d="M112.214 44.9997C109.492 44.9997 106.928 43.942 104.985 42.0164C103.022 40.069 101.927 37.4695 101.906 34.6934C101.903 34.5517 101.901 34.4077 101.906 34.2638C102.016 28.7181 106.577 24.2999 112.084 24.4068L112.075 24.8429C106.813 24.7339 102.442 28.9667 102.338 34.2725C102.336 34.4099 102.336 34.5473 102.338 34.6869C102.36 37.3496 103.407 39.84 105.287 41.7046C107.168 43.5691 109.66 44.5854 112.294 44.5635C114.827 44.5417 117.229 43.556 119.055 41.7874C120.933 39.9338 121.966 37.3496 121.885 34.7C121.968 32.0503 120.936 29.4879 119.053 27.6561C117.233 25.8177 114.713 24.7906 112.147 24.8255L112.14 24.3893C114.825 24.3544 117.458 25.4252 119.356 27.3443C121.323 29.259 122.403 31.9413 122.316 34.6978C122.4 37.4564 121.321 40.1584 119.354 42.0993C117.446 43.9486 114.938 44.9757 112.294 44.9975C112.266 44.9975 112.235 44.9975 112.207 44.9975L112.214 44.9997ZM88.7089 44.6748C88.6527 44.6748 88.5964 44.6748 88.5401 44.6748H81.9321V24.7099H88.5423C91.195 24.6488 93.7764 25.4056 95.9921 26.8885C98.2618 28.439 99.5644 31.2369 99.5666 34.5691C99.718 37.5917 98.3981 40.5095 96.0353 42.3784C93.8586 43.8853 91.3314 44.6748 88.7067 44.6748H88.7089ZM82.367 44.2386H88.5445C91.1474 44.2691 93.6422 43.5081 95.7822 42.0273C98.0238 40.2544 99.2831 37.4695 99.136 34.5866V34.5757C99.136 31.3874 97.9026 28.7181 95.754 27.2505C93.6119 25.8177 91.1193 25.0915 88.5488 25.1461H82.367V44.2364V44.2386ZM147.002 44.6748H142.426V29.0125H141.987L138.587 44.6748H133.535L130.212 29.0125H129.8V44.6748H125.252V24.7012H133.944L136.058 35.9234L138.261 24.7012H147V44.6748H147.002ZM142.859 44.2386H146.569V25.1373H138.618L136.049 38.2132L133.585 25.1373H125.683V44.2386H129.366V28.5764H130.558L133.881 44.2386H138.235L141.634 28.5764H142.854V44.2386H142.859ZM77.8751 44.6748H53.6542L53.6737 24.7012H77.8751V28.934H58.2197V32.3927H77.4012V36.5863H58.2197V40.4245H77.8751V44.6769V44.6748ZM54.0869 44.2386H77.4423V40.8584H57.7869V36.148H76.9685V32.8267H57.7869V28.4957H77.4423V25.1351H54.1043L54.0848 44.2364L54.0869 44.2386ZM50.136 44.6748H35.4096V24.7012H50.136V28.934H39.9274V32.3927H49.5864V36.5863H39.9274V40.4245H50.136V44.6769V44.6748ZM35.8423 44.2386H49.7032V40.8584H39.4947V36.148H49.1536V32.8267H39.4947V28.4957H49.7032V25.1351H35.8423V44.2364V44.2386ZM33.0186 44.6748H28.2022L27.4081 41.3644C27.2674 40.6404 27.0402 39.9425 26.7373 39.2839C26.244 38.2677 24.9565 37.7072 23.1174 37.7072H21.17V44.6769H16.6218V24.7012H24.6904C26.6854 24.59 28.689 25.1766 30.3226 26.3586C31.7658 27.4555 32.5729 29.1914 32.4885 31.0036H32.469C32.4388 33.228 31.1795 35.2277 29.2234 36.2112C30.6364 37.1599 31.5949 38.6471 31.8762 40.3503L33.0165 44.6726L33.0186 44.6748ZM28.5419 44.2386H32.4561L31.4564 40.4441C31.1686 38.7126 30.1517 37.2362 28.6609 36.3726L28.28 36.1524L28.6868 35.9823C30.6969 35.1427 32.0125 33.1843 32.0406 30.9927H32.283L32.0601 30.9861C32.138 29.3157 31.3937 27.7194 30.0695 26.7118C28.5202 25.5931 26.614 25.0327 24.7056 25.1395H17.0567V44.2408H20.7394V37.2711H23.1195C25.835 37.2711 26.7979 38.416 27.1289 39.0964C27.4492 39.792 27.6872 40.5226 27.8322 41.2728L28.544 44.2408L28.5419 44.2386ZM4.54818 44.6748H0V24.7012H13.7895V28.9537H4.54818V32.7613H13.1534V36.9832H4.54818V44.6726V44.6748ZM0.432748 44.2386H4.11543V36.5493H12.7206V33.1996H4.11543V28.5197H13.3568V25.1395H0.432748V44.2408V44.2386ZM111.9 41.0896C110.335 41.0896 108.836 40.4201 107.769 39.2294C105.608 36.6038 105.608 32.8027 107.763 30.1836L108.096 30.4627C106.075 32.9205 106.075 36.4882 108.096 38.9459C109.132 40.1039 110.628 40.7298 112.179 40.6491C113.73 40.7232 115.189 40.0995 116.199 38.9415C117.231 37.7639 117.774 36.2527 117.729 34.6825C117.759 33.1255 117.21 31.6404 116.182 30.4911C115.182 29.3375 113.737 28.7007 112.224 28.7421C110.662 28.6811 109.167 29.3048 108.12 30.4627L107.8 30.1683C108.933 28.9166 110.545 28.2362 112.227 28.306C113.854 28.2645 115.422 28.9515 116.504 30.2011C117.606 31.431 118.194 33.023 118.162 34.6803C118.211 36.3508 117.629 37.9689 116.524 39.2294C115.425 40.4877 113.839 41.1616 112.179 41.0852C112.086 41.0896 111.993 41.0918 111.9 41.0918V41.0896ZM87.917 40.8584H86.0583V28.5175H87.9062C92.8763 28.5175 95.3949 30.5565 95.3949 34.5757H95.3754C95.3711 38.7453 92.8611 40.8584 87.9148 40.8584H87.917ZM86.4911 40.4223H87.917C92.6448 40.4223 94.9448 38.5076 94.9448 34.5669H94.9643C94.96 30.7899 92.6512 28.9537 87.9083 28.9537H86.4932V40.4223H86.4911ZM24.7596 33.9171H20.7373V28.5153H24.7488C27.9209 28.5153 28.3947 30.1705 28.3947 31.1584H27.962C27.962 29.3353 26.2158 28.9515 24.7488 28.9515H21.17V33.4809H24.7596C27.0121 33.4809 27.9728 32.7853 27.9728 31.1584H28.4055C28.4055 33.0404 27.2479 33.9171 24.7596 33.9171ZM57.6268 20.6929C57.5143 20.6929 57.404 20.6929 57.2914 20.6864C54.1172 20.73 51.1205 19.343 49.0866 16.8701L48.9632 16.7196L52.1006 13.4724L52.2521 13.684C53.4724 15.4046 55.4523 16.4165 57.5511 16.4056C59.44 16.4056 60.708 15.6401 60.708 14.5018C60.708 13.5902 59.8576 12.9709 58.1807 12.6612L55.7963 12.2425C51.7393 11.5752 49.5042 9.42495 49.5042 6.18652C49.4241 4.3983 50.2463 2.70166 51.7003 1.65708C53.1847 0.544891 55.0325 -0.043914 56.889 0.00406276C59.7581 -0.0853484 62.5385 1.07918 64.5075 3.19888L64.6481 3.34935L61.5843 6.58996L61.4285 6.4155C60.2147 5.0547 58.4772 4.25655 56.6596 4.23038C55.0888 4.23038 54.0307 4.92604 54.0307 5.95972H53.5979C53.5979 4.66435 54.8291 3.79422 56.664 3.79422C58.5248 3.82257 60.3077 4.60547 61.5908 5.95318L64.0531 3.35153C62.1772 1.4172 59.585 0.361708 56.8933 0.444576C55.1212 0.39878 53.3686 0.957055 51.9557 2.0169C50.6163 2.97644 49.8633 4.5335 49.9369 6.18434C49.9369 9.19161 52.0444 11.1892 55.8699 11.8194L58.2586 12.2381C60.1735 12.5914 61.1429 13.3547 61.1429 14.5061C61.1429 15.9062 59.7018 16.8461 57.5554 16.8461C57.5381 16.8461 57.5186 16.8461 57.5013 16.8461C55.37 16.8461 53.3556 15.8451 52.0574 14.1507L49.5518 16.7458C51.497 19.0247 54.3141 20.3048 57.3023 20.2546C59.2583 20.3288 61.1948 19.7334 62.77 18.582C64.0834 17.6224 64.8472 16.0741 64.8148 14.4407C64.8148 11.1565 62.7397 9.22868 58.4685 8.54828L56.5363 8.23643C54.576 7.88751 53.5828 7.11988 53.5828 5.95754H54.0155C54.0155 6.87782 54.8875 7.49934 56.6099 7.80682L58.5378 8.11867C62.9907 8.8296 65.2497 10.9558 65.2497 14.4385C65.2843 16.2115 64.4534 17.895 63.0253 18.9374C61.4631 20.078 59.559 20.6973 57.6333 20.6973L57.6268 20.6929ZM120.345 20.621C120.271 20.621 120.198 20.621 120.124 20.6188C119.99 20.621 119.847 20.6188 119.702 20.6166C114.206 20.4683 109.855 15.8407 110.002 10.2994C110 10.1839 110 10.0552 110.002 9.9287C110.095 4.37213 114.663 -0.0657216 120.172 0.0215088C122.881 -0.0417332 125.536 1.02684 127.459 2.95681C129.422 4.8737 130.502 7.55604 130.421 10.3125C130.502 13.0668 129.422 15.7666 127.459 17.7053L127.156 17.3934C129.034 15.5398 130.067 12.96 129.989 10.3125C130.067 7.66507 129.034 5.10268 127.156 3.26866C125.315 1.42156 122.764 0.3966 120.174 0.457661C114.886 0.370431 110.526 4.61855 110.437 9.93525C110.437 10.0574 110.437 10.1795 110.437 10.2994C110.368 12.8771 111.296 15.3174 113.049 17.1819C114.801 19.0465 117.169 20.1107 119.715 20.1805C119.852 20.1848 119.988 20.1848 120.126 20.1805C122.721 20.2372 125.27 19.2231 127.115 17.3913L127.418 17.7031C125.542 19.5633 122.974 20.621 120.345 20.621ZM9.75197 20.3157C9.63512 20.3157 9.51828 20.3135 9.40144 20.3069H0.0194736V0.335538H8.92758C13.2551 0.335538 15.8364 2.43779 15.8364 5.95536C15.8451 7.48189 15.1635 8.93646 14.0015 9.90472C15.4426 10.9319 16.2973 12.5805 16.3016 14.3753C16.3557 16.0436 15.6546 17.6224 14.3802 18.6997C13.056 19.7509 11.4245 20.3157 9.75197 20.3157ZM0.452221 19.8708H9.41226C11.113 19.9515 12.7769 19.415 14.1076 18.3595C15.276 17.3738 15.9208 15.9236 15.8689 14.3818C15.8645 12.6285 14.986 11.03 13.5169 10.101L13.2464 9.9287L13.506 9.73898C14.7048 8.86231 15.4145 7.447 15.4058 5.95536C15.4058 2.70821 12.9846 0.76951 8.92974 0.76951H0.452221V19.873V19.8708ZM137.739 20.3069H133.182V0.335538H147.002V4.58802H137.739V8.38691H146.336V12.6198H137.739V20.3091V20.3069ZM133.615 19.8708H137.306V12.1814H145.903V8.82088H137.306V4.15187H146.569V0.77169H133.615V19.873V19.8708ZM41.9181 20.3069H37.3894V4.58802H31.8351V0.335538H47.4789V4.58802H41.9159V20.3091L41.9181 20.3069ZM37.8221 19.8708H41.4853V4.15187H47.0483V0.77169H32.27V4.15187H37.8243V19.873L37.8221 19.8708ZM29.3035 20.3069H19.2789V16.085H21.9728V4.55749H19.2097V0.335538H29.3013V4.55749H26.5382V16.085H29.3013V20.3069H29.3035ZM19.7116 19.8708H28.8707V16.5211H26.1077V4.12134H28.8707V0.77169H19.6446V4.12134H22.4077V16.5211H19.7138V19.8708H19.7116ZM119.997 16.7218C118.426 16.7218 116.92 16.0501 115.851 14.8529C114.754 13.5902 114.176 11.9743 114.222 10.3016C114.18 8.64642 114.758 7.03702 115.849 5.78308C116.987 4.53132 118.599 3.85747 120.28 3.92725C121.903 3.87927 123.472 4.57058 124.558 5.81143C125.676 7.0392 126.278 8.63551 126.243 10.306C126.291 11.9808 125.713 13.5946 124.614 14.8507C123.513 16.1112 121.924 16.7916 120.261 16.7152C120.172 16.7196 120.083 16.7218 119.994 16.7218H119.997ZM120.053 4.35686C118.571 4.35686 117.171 4.97402 116.173 6.07312C115.156 7.23983 114.618 8.74237 114.656 10.3016C114.613 11.8761 115.154 13.3874 116.178 14.5628C117.218 15.7273 118.705 16.3532 120.265 16.2791C121.816 16.351 123.281 15.723 124.294 14.5606C125.322 13.3852 125.86 11.8761 125.815 10.3103V10.2994C125.847 8.74019 125.287 7.24855 124.24 6.09929C123.236 4.95221 121.799 4.32197 120.28 4.35904C120.204 4.35686 120.129 4.35468 120.055 4.35468L120.053 4.35686ZM8.45589 16.4535H4.11543V11.6471H8.57273C11.5024 11.6471 12.1451 12.9054 12.1602 13.9784V14.0176C12.1516 15.0753 11.7361 16.4557 8.45805 16.4557L8.45589 16.4535ZM4.54818 16.0174H8.45589C10.7365 16.0174 11.7166 15.4133 11.7253 13.998C11.7145 12.7266 10.6542 12.0833 8.57056 12.0833H4.54818V16.0174ZM8.26331 8.59844H4.11543V4.15187H8.09887C10.2518 4.15187 11.6863 4.52914 11.6863 6.37625C11.6863 7.85262 10.5352 8.60062 8.26331 8.60062V8.59844ZM4.54818 8.16229H8.26331C10.2756 8.16229 11.2536 7.57784 11.2536 6.37406C11.2536 5.24225 10.7365 4.58584 8.09887 4.58584H4.54818V8.16011V8.16229Z"/>
</mask>
<path d="M112.214 44.9997C109.492 44.9997 106.928 43.942 104.985 42.0164C103.022 40.069 101.927 37.4695 101.906 34.6934C101.903 34.5517 101.901 34.4077 101.906 34.2638C102.016 28.7181 106.577 24.2999 112.084 24.4068L112.075 24.8429C106.813 24.7339 102.442 28.9667 102.338 34.2725C102.336 34.4099 102.336 34.5473 102.338 34.6869C102.36 37.3496 103.407 39.84 105.287 41.7046C107.168 43.5691 109.66 44.5854 112.294 44.5635C114.827 44.5417 117.229 43.556 119.055 41.7874C120.933 39.9338 121.966 37.3496 121.885 34.7C121.968 32.0503 120.936 29.4879 119.053 27.6561C117.233 25.8177 114.713 24.7906 112.147 24.8255L112.14 24.3893C114.825 24.3544 117.458 25.4252 119.356 27.3443C121.323 29.259 122.403 31.9413 122.316 34.6978C122.4 37.4564 121.321 40.1584 119.354 42.0993C117.446 43.9486 114.938 44.9757 112.294 44.9975C112.266 44.9975 112.235 44.9975 112.207 44.9975L112.214 44.9997ZM88.7089 44.6748C88.6527 44.6748 88.5964 44.6748 88.5401 44.6748H81.9321V24.7099H88.5423C91.195 24.6488 93.7764 25.4056 95.9921 26.8885C98.2618 28.439 99.5644 31.2369 99.5666 34.5691C99.718 37.5917 98.3981 40.5095 96.0353 42.3784C93.8586 43.8853 91.3314 44.6748 88.7067 44.6748H88.7089ZM82.367 44.2386H88.5445C91.1474 44.2691 93.6422 43.5081 95.7822 42.0273C98.0238 40.2544 99.2831 37.4695 99.136 34.5866V34.5757C99.136 31.3874 97.9026 28.7181 95.754 27.2505C93.6119 25.8177 91.1193 25.0915 88.5488 25.1461H82.367V44.2364V44.2386ZM147.002 44.6748H142.426V29.0125H141.987L138.587 44.6748H133.535L130.212 29.0125H129.8V44.6748H125.252V24.7012H133.944L136.058 35.9234L138.261 24.7012H147V44.6748H147.002ZM142.859 44.2386H146.569V25.1373H138.618L136.049 38.2132L133.585 25.1373H125.683V44.2386H129.366V28.5764H130.558L133.881 44.2386H138.235L141.634 28.5764H142.854V44.2386H142.859ZM77.8751 44.6748H53.6542L53.6737 24.7012H77.8751V28.934H58.2197V32.3927H77.4012V36.5863H58.2197V40.4245H77.8751V44.6769V44.6748ZM54.0869 44.2386H77.4423V40.8584H57.7869V36.148H76.9685V32.8267H57.7869V28.4957H77.4423V25.1351H54.1043L54.0848 44.2364L54.0869 44.2386ZM50.136 44.6748H35.4096V24.7012H50.136V28.934H39.9274V32.3927H49.5864V36.5863H39.9274V40.4245H50.136V44.6769V44.6748ZM35.8423 44.2386H49.7032V40.8584H39.4947V36.148H49.1536V32.8267H39.4947V28.4957H49.7032V25.1351H35.8423V44.2364V44.2386ZM33.0186 44.6748H28.2022L27.4081 41.3644C27.2674 40.6404 27.0402 39.9425 26.7373 39.2839C26.244 38.2677 24.9565 37.7072 23.1174 37.7072H21.17V44.6769H16.6218V24.7012H24.6904C26.6854 24.59 28.689 25.1766 30.3226 26.3586C31.7658 27.4555 32.5729 29.1914 32.4885 31.0036H32.469C32.4388 33.228 31.1795 35.2277 29.2234 36.2112C30.6364 37.1599 31.5949 38.6471 31.8762 40.3503L33.0165 44.6726L33.0186 44.6748ZM28.5419 44.2386H32.4561L31.4564 40.4441C31.1686 38.7126 30.1517 37.2362 28.6609 36.3726L28.28 36.1524L28.6868 35.9823C30.6969 35.1427 32.0125 33.1843 32.0406 30.9927H32.283L32.0601 30.9861C32.138 29.3157 31.3937 27.7194 30.0695 26.7118C28.5202 25.5931 26.614 25.0327 24.7056 25.1395H17.0567V44.2408H20.7394V37.2711H23.1195C25.835 37.2711 26.7979 38.416 27.1289 39.0964C27.4492 39.792 27.6872 40.5226 27.8322 41.2728L28.544 44.2408L28.5419 44.2386ZM4.54818 44.6748H0V24.7012H13.7895V28.9537H4.54818V32.7613H13.1534V36.9832H4.54818V44.6726V44.6748ZM0.432748 44.2386H4.11543V36.5493H12.7206V33.1996H4.11543V28.5197H13.3568V25.1395H0.432748V44.2408V44.2386ZM111.9 41.0896C110.335 41.0896 108.836 40.4201 107.769 39.2294C105.608 36.6038 105.608 32.8027 107.763 30.1836L108.096 30.4627C106.075 32.9205 106.075 36.4882 108.096 38.9459C109.132 40.1039 110.628 40.7298 112.179 40.6491C113.73 40.7232 115.189 40.0995 116.199 38.9415C117.231 37.7639 117.774 36.2527 117.729 34.6825C117.759 33.1255 117.21 31.6404 116.182 30.4911C115.182 29.3375 113.737 28.7007 112.224 28.7421C110.662 28.6811 109.167 29.3048 108.12 30.4627L107.8 30.1683C108.933 28.9166 110.545 28.2362 112.227 28.306C113.854 28.2645 115.422 28.9515 116.504 30.2011C117.606 31.431 118.194 33.023 118.162 34.6803C118.211 36.3508 117.629 37.9689 116.524 39.2294C115.425 40.4877 113.839 41.1616 112.179 41.0852C112.086 41.0896 111.993 41.0918 111.9 41.0918V41.0896ZM87.917 40.8584H86.0583V28.5175H87.9062C92.8763 28.5175 95.3949 30.5565 95.3949 34.5757H95.3754C95.3711 38.7453 92.8611 40.8584 87.9148 40.8584H87.917ZM86.4911 40.4223H87.917C92.6448 40.4223 94.9448 38.5076 94.9448 34.5669H94.9643C94.96 30.7899 92.6512 28.9537 87.9083 28.9537H86.4932V40.4223H86.4911ZM24.7596 33.9171H20.7373V28.5153H24.7488C27.9209 28.5153 28.3947 30.1705 28.3947 31.1584H27.962C27.962 29.3353 26.2158 28.9515 24.7488 28.9515H21.17V33.4809H24.7596C27.0121 33.4809 27.9728 32.7853 27.9728 31.1584H28.4055C28.4055 33.0404 27.2479 33.9171 24.7596 33.9171ZM57.6268 20.6929C57.5143 20.6929 57.404 20.6929 57.2914 20.6864C54.1172 20.73 51.1205 19.343 49.0866 16.8701L48.9632 16.7196L52.1006 13.4724L52.2521 13.684C53.4724 15.4046 55.4523 16.4165 57.5511 16.4056C59.44 16.4056 60.708 15.6401 60.708 14.5018C60.708 13.5902 59.8576 12.9709 58.1807 12.6612L55.7963 12.2425C51.7393 11.5752 49.5042 9.42495 49.5042 6.18652C49.4241 4.3983 50.2463 2.70166 51.7003 1.65708C53.1847 0.544891 55.0325 -0.043914 56.889 0.00406276C59.7581 -0.0853484 62.5385 1.07918 64.5075 3.19888L64.6481 3.34935L61.5843 6.58996L61.4285 6.4155C60.2147 5.0547 58.4772 4.25655 56.6596 4.23038C55.0888 4.23038 54.0307 4.92604 54.0307 5.95972H53.5979C53.5979 4.66435 54.8291 3.79422 56.664 3.79422C58.5248 3.82257 60.3077 4.60547 61.5908 5.95318L64.0531 3.35153C62.1772 1.4172 59.585 0.361708 56.8933 0.444576C55.1212 0.39878 53.3686 0.957055 51.9557 2.0169C50.6163 2.97644 49.8633 4.5335 49.9369 6.18434C49.9369 9.19161 52.0444 11.1892 55.8699 11.8194L58.2586 12.2381C60.1735 12.5914 61.1429 13.3547 61.1429 14.5061C61.1429 15.9062 59.7018 16.8461 57.5554 16.8461C57.5381 16.8461 57.5186 16.8461 57.5013 16.8461C55.37 16.8461 53.3556 15.8451 52.0574 14.1507L49.5518 16.7458C51.497 19.0247 54.3141 20.3048 57.3023 20.2546C59.2583 20.3288 61.1948 19.7334 62.77 18.582C64.0834 17.6224 64.8472 16.0741 64.8148 14.4407C64.8148 11.1565 62.7397 9.22868 58.4685 8.54828L56.5363 8.23643C54.576 7.88751 53.5828 7.11988 53.5828 5.95754H54.0155C54.0155 6.87782 54.8875 7.49934 56.6099 7.80682L58.5378 8.11867C62.9907 8.8296 65.2497 10.9558 65.2497 14.4385C65.2843 16.2115 64.4534 17.895 63.0253 18.9374C61.4631 20.078 59.559 20.6973 57.6333 20.6973L57.6268 20.6929ZM120.345 20.621C120.271 20.621 120.198 20.621 120.124 20.6188C119.99 20.621 119.847 20.6188 119.702 20.6166C114.206 20.4683 109.855 15.8407 110.002 10.2994C110 10.1839 110 10.0552 110.002 9.9287C110.095 4.37213 114.663 -0.0657216 120.172 0.0215088C122.881 -0.0417332 125.536 1.02684 127.459 2.95681C129.422 4.8737 130.502 7.55604 130.421 10.3125C130.502 13.0668 129.422 15.7666 127.459 17.7053L127.156 17.3934C129.034 15.5398 130.067 12.96 129.989 10.3125C130.067 7.66507 129.034 5.10268 127.156 3.26866C125.315 1.42156 122.764 0.3966 120.174 0.457661C114.886 0.370431 110.526 4.61855 110.437 9.93525C110.437 10.0574 110.437 10.1795 110.437 10.2994C110.368 12.8771 111.296 15.3174 113.049 17.1819C114.801 19.0465 117.169 20.1107 119.715 20.1805C119.852 20.1848 119.988 20.1848 120.126 20.1805C122.721 20.2372 125.27 19.2231 127.115 17.3913L127.418 17.7031C125.542 19.5633 122.974 20.621 120.345 20.621ZM9.75197 20.3157C9.63512 20.3157 9.51828 20.3135 9.40144 20.3069H0.0194736V0.335538H8.92758C13.2551 0.335538 15.8364 2.43779 15.8364 5.95536C15.8451 7.48189 15.1635 8.93646 14.0015 9.90472C15.4426 10.9319 16.2973 12.5805 16.3016 14.3753C16.3557 16.0436 15.6546 17.6224 14.3802 18.6997C13.056 19.7509 11.4245 20.3157 9.75197 20.3157ZM0.452221 19.8708H9.41226C11.113 19.9515 12.7769 19.415 14.1076 18.3595C15.276 17.3738 15.9208 15.9236 15.8689 14.3818C15.8645 12.6285 14.986 11.03 13.5169 10.101L13.2464 9.9287L13.506 9.73898C14.7048 8.86231 15.4145 7.447 15.4058 5.95536C15.4058 2.70821 12.9846 0.76951 8.92974 0.76951H0.452221V19.873V19.8708ZM137.739 20.3069H133.182V0.335538H147.002V4.58802H137.739V8.38691H146.336V12.6198H137.739V20.3091V20.3069ZM133.615 19.8708H137.306V12.1814H145.903V8.82088H137.306V4.15187H146.569V0.77169H133.615V19.873V19.8708ZM41.9181 20.3069H37.3894V4.58802H31.8351V0.335538H47.4789V4.58802H41.9159V20.3091L41.9181 20.3069ZM37.8221 19.8708H41.4853V4.15187H47.0483V0.77169H32.27V4.15187H37.8243V19.873L37.8221 19.8708ZM29.3035 20.3069H19.2789V16.085H21.9728V4.55749H19.2097V0.335538H29.3013V4.55749H26.5382V16.085H29.3013V20.3069H29.3035ZM19.7116 19.8708H28.8707V16.5211H26.1077V4.12134H28.8707V0.77169H19.6446V4.12134H22.4077V16.5211H19.7138V19.8708H19.7116ZM119.997 16.7218C118.426 16.7218 116.92 16.0501 115.851 14.8529C114.754 13.5902 114.176 11.9743 114.222 10.3016C114.18 8.64642 114.758 7.03702 115.849 5.78308C116.987 4.53132 118.599 3.85747 120.28 3.92725C121.903 3.87927 123.472 4.57058 124.558 5.81143C125.676 7.0392 126.278 8.63551 126.243 10.306C126.291 11.9808 125.713 13.5946 124.614 14.8507C123.513 16.1112 121.924 16.7916 120.261 16.7152C120.172 16.7196 120.083 16.7218 119.994 16.7218H119.997ZM120.053 4.35686C118.571 4.35686 117.171 4.97402 116.173 6.07312C115.156 7.23983 114.618 8.74237 114.656 10.3016C114.613 11.8761 115.154 13.3874 116.178 14.5628C117.218 15.7273 118.705 16.3532 120.265 16.2791C121.816 16.351 123.281 15.723 124.294 14.5606C125.322 13.3852 125.86 11.8761 125.815 10.3103V10.2994C125.847 8.74019 125.287 7.24855 124.24 6.09929C123.236 4.95221 121.799 4.32197 120.28 4.35904C120.204 4.35686 120.129 4.35468 120.055 4.35468L120.053 4.35686ZM8.45589 16.4535H4.11543V11.6471H8.57273C11.5024 11.6471 12.1451 12.9054 12.1602 13.9784V14.0176C12.1516 15.0753 11.7361 16.4557 8.45805 16.4557L8.45589 16.4535ZM4.54818 16.0174H8.45589C10.7365 16.0174 11.7166 15.4133 11.7253 13.998C11.7145 12.7266 10.6542 12.0833 8.57056 12.0833H4.54818V16.0174ZM8.26331 8.59844H4.11543V4.15187H8.09887C10.2518 4.15187 11.6863 4.52914 11.6863 6.37625C11.6863 7.85262 10.5352 8.60062 8.26331 8.60062V8.59844ZM4.54818 8.16229H8.26331C10.2756 8.16229 11.2536 7.57784 11.2536 6.37406C11.2536 5.24225 10.7365 4.58584 8.09887 4.58584H4.54818V8.16011V8.16229Z" fill="white" stroke="white" stroke-width="4" mask="url(#path-1-inside-1_33_2)"/>
</g>
<path d="M5.472 60.912H1.872L1.26 63H0.18L2.724 54.6H4.62L7.164 63H6.084L5.472 60.912ZM3.6 55.032L2.148 59.976H5.196L3.744 55.032H3.6ZM12.6637 62.568H12.8077V54.6H13.8157V63H11.7997L9.37566 55.032H9.23166V63H8.22366V54.6H10.2397L12.6637 62.568ZM20.0113 62.568H20.1553V54.6H21.1633V63H19.1473L16.7233 55.032H16.5793V63H15.5713V54.6H17.5873L20.0113 62.568ZM23.843 54.6V60.168C23.843 60.848 23.999 61.364 24.311 61.716C24.631 62.06 25.099 62.232 25.715 62.232C26.331 62.232 26.795 62.06 27.107 61.716C27.427 61.364 27.587 60.848 27.587 60.168V54.6H28.595V60.168C28.595 61.144 28.339 61.888 27.827 62.4C27.315 62.912 26.611 63.168 25.715 63.168C24.819 63.168 24.115 62.912 23.603 62.4C23.091 61.888 22.835 61.144 22.835 60.168V54.6H23.843ZM34.8626 60.912H31.2626L30.6506 63H29.5706L32.1146 54.6H34.0106L36.5546 63H35.4746L34.8626 60.912ZM32.9906 55.032L31.5386 59.976H34.5866L33.1346 55.032H32.9906ZM37.7823 54.6H38.7903V62.064H43.1823V63H37.7823V54.6ZM57.7336 63H56.7256V60.192C56.7256 59.984 56.6776 59.824 56.5816 59.712C56.4856 59.6 56.3176 59.544 56.0776 59.544H53.4616V63H52.4536V54.6H55.4536C55.8856 54.6 56.2616 54.664 56.5816 54.792C56.9016 54.912 57.1656 55.076 57.3736 55.284C57.5896 55.492 57.7496 55.736 57.8536 56.016C57.9656 56.288 58.0216 56.576 58.0216 56.88V57.24C58.0216 57.552 57.9336 57.864 57.7576 58.176C57.5896 58.488 57.3256 58.728 56.9656 58.896V59.04C57.2056 59.08 57.3936 59.176 57.5296 59.328C57.6656 59.48 57.7336 59.696 57.7336 59.976V63ZM53.4616 58.608H55.3336C55.9016 58.608 56.3216 58.488 56.5936 58.248C56.8736 58 57.0136 57.64 57.0136 57.168V56.952C57.0136 56.528 56.8736 56.188 56.5936 55.932C56.3216 55.668 55.9016 55.536 55.3336 55.536H53.4616V58.608ZM59.9093 54.6H64.9973V55.536H60.9173V58.32H64.9253V59.256H60.9173V62.064H65.0693V63H59.9093V54.6ZM68.1569 59.544V63H67.1489V54.6H70.1489C70.5809 54.6 70.9569 54.664 71.2769 54.792C71.5969 54.912 71.8609 55.076 72.0689 55.284C72.2849 55.492 72.4449 55.736 72.5489 56.016C72.6609 56.288 72.7169 56.576 72.7169 56.88V57.24C72.7169 57.544 72.6609 57.836 72.5489 58.116C72.4449 58.396 72.2849 58.644 72.0689 58.86C71.8529 59.068 71.5849 59.236 71.2649 59.364C70.9449 59.484 70.5729 59.544 70.1489 59.544H68.1569ZM68.1569 58.608H70.0289C71.1489 58.608 71.7089 58.128 71.7089 57.168V56.952C71.7089 56.528 71.5689 56.188 71.2889 55.932C71.0169 55.668 70.5969 55.536 70.0289 55.536H68.1569V58.608ZM74.1966 57.864C74.1966 56.776 74.4566 55.932 74.9766 55.332C75.4966 54.732 76.2206 54.432 77.1486 54.432C78.0766 54.432 78.8006 54.732 79.3206 55.332C79.8406 55.932 80.1006 56.776 80.1006 57.864V59.736C80.1006 60.856 79.8406 61.708 79.3206 62.292C78.8006 62.876 78.0766 63.168 77.1486 63.168C76.2206 63.168 75.4966 62.876 74.9766 62.292C74.4566 61.708 74.1966 60.856 74.1966 59.736V57.864ZM77.1486 62.232C77.7966 62.232 78.2806 62.012 78.6006 61.572C78.9286 61.124 79.0926 60.488 79.0926 59.664V57.936C79.0926 57.168 78.9286 56.548 78.6006 56.076C78.2806 55.604 77.7966 55.368 77.1486 55.368C76.5006 55.368 76.0126 55.604 75.6846 56.076C75.3646 56.548 75.2046 57.168 75.2046 57.936V59.664C75.2046 60.488 75.3646 61.124 75.6846 61.572C76.0126 62.012 76.5006 62.232 77.1486 62.232ZM87.1242 63H86.1162V60.192C86.1162 59.984 86.0682 59.824 85.9722 59.712C85.8762 59.6 85.7082 59.544 85.4682 59.544H82.8522V63H81.8442V54.6H84.8442C85.2762 54.6 85.6522 54.664 85.9722 54.792C86.2922 54.912 86.5562 55.076 86.7642 55.284C86.9802 55.492 87.1402 55.736 87.2442 56.016C87.3562 56.288 87.4122 56.576 87.4122 56.88V57.24C87.4122 57.552 87.3242 57.864 87.1482 58.176C86.9802 58.488 86.7162 58.728 86.3562 58.896V59.04C86.5962 59.08 86.7842 59.176 86.9202 59.328C87.0562 59.48 87.1242 59.696 87.1242 59.976V63ZM82.8522 58.608H84.7242C85.2922 58.608 85.7122 58.488 85.9842 58.248C86.2642 58 86.4042 57.64 86.4042 57.168V56.952C86.4042 56.528 86.2642 56.188 85.9842 55.932C85.7122 55.668 85.2922 55.536 84.7242 55.536H82.8522V58.608ZM88.8919 54.6H94.7959V55.536H92.3479V63H91.3399V55.536H88.8919V54.6Z" fill="white"/>
<defs>
<clipPath id="clip0_33_2">
<rect width="147" height="45" fill="white"/>
</clipPath>
</defs>
</svg>
